<?xml version="1.0" standalone="no"?>
<!DOCTYPE svg PUBLIC "-//W3C//DTD SVG 20010904//EN"
 "http://www.w3.org/TR/2001/REC-SVG-20010904/DTD/svg10.dtd">
<svg version="1.0" xmlns="http://www.w3.org/2000/svg"
 width="1370.000000pt" height="1370.000000pt" viewBox="0 0 1370.000000 1370.000000"
 preserveAspectRatio="xMidYMid meet">
<metadata>
Created by potrace 1.14, written by Peter Selinger 2001-2017
</metadata>
<g transform="translate(0.000000,1370.000000) scale(0.100000,-0.100000)"
fill="#000000" stroke="none">
<path d="M5538 10655 c-2 -1 -41 -6 -88 -9 -47 -3 -97 -8 -112 -11 -15 -3 -51
-7 -80 -10 -29 -3 -73 -9 -98 -14 -25 -5 -61 -12 -80 -15 -66 -11 -95 -17
-175 -37 -44 -12 -87 -22 -95 -24 -8 -2 -42 -11 -75 -20 -33 -10 -61 -17 -63
-16 -1 1 -16 -6 -32 -14 -16 -8 -32 -15 -35 -15 -20 -1 -66 -14 -71 -21 -3 -5
-12 -9 -20 -9 -37 0 -402 -167 -559 -255 -77 -44 -240 -149 -243 -157 -2 -5
-10 -8 -18 -8 -8 0 -14 -4 -14 -10 0 -5 -5 -10 -10 -10 -6 0 -16 -5 -23 -10
-51 -44 -73 -60 -79 -60 -4 0 -13 -7 -21 -15 -8 -8 -55 -47 -104 -87 -48 -40
-97 -81 -109 -93 -11 -11 -36 -34 -55 -51 -68 -62 -207 -211 -284 -304 -44
-52 -82 -97 -85 -100 -3 -3 -9 -12 -15 -21 -5 -9 -40 -59 -76 -110 -97 -136
-166 -252 -243 -404 -54 -107 -106 -221 -121 -265 -1 -3 -7 -18 -14 -35 -19
-43 -90 -259 -94 -281 -1 -10 -6 -24 -10 -31 -4 -6 -12 -33 -17 -60 -13 -59
-18 -86 -31 -143 -15 -64 -16 -70 -23 -120 -3 -25 -8 -56 -11 -70 -3 -14 -7
-43 -9 -65 -3 -22 -7 -62 -10 -90 -14 -120 -19 -294 -13 -500 l2 -50 -175 -2
c-150 -3 -245 -7 -245 -13 0 -1 -18 -3 -40 -6 -81 -11 -90 -12 -90 -14 0 -1
-9 -3 -20 -5 -11 -2 -31 -6 -45 -9 -14 -3 -38 -8 -55 -12 -58 -12 -228 -68
-310 -102 -64 -27 -269 -132 -286 -148 -8 -8 -20 -14 -26 -14 -5 0 -21 -9 -34
-20 -13 -12 -63 -49 -111 -85 -132 -97 -251 -211 -348 -335 -29 -36 -60 -75
-71 -88 -10 -12 -19 -24 -19 -26 0 -2 -22 -36 -48 -77 -47 -71 -158 -288 -164
-319 -2 -8 -5 -17 -8 -20 -14 -13 -93 -290 -86 -298 3 -3 2 -10 -3 -16 -5 -6
-11 -33 -15 -61 -3 -27 -9 -72 -13 -100 -16 -101 -7 -466 12 -535 2 -8 7 -28
10 -45 8 -50 12 -68 29 -130 20 -71 21 -75 28 -95 3 -8 13 -37 23 -65 24 -71
27 -78 86 -200 45 -93 168 -293 204 -331 5 -7 26 -31 45 -55 76 -95 248 -258
360 -342 109 -82 318 -199 440 -247 89 -35 95 -38 100 -38 3 0 19 -6 35 -12
17 -7 44 -16 60 -21 17 -4 57 -15 90 -24 33 -10 69 -19 80 -21 76 -14 209 -34
259 -39 33 -3 61 -7 64 -10 3 -2 13 0 23 6 11 5 19 6 19 2 0 -4 969 -9 2153
-11 5269 -6 8285 -6 8327 0 102 17 118 20 195 42 96 28 204 70 265 104 91 50
135 76 138 84 2 4 9 8 15 8 7 0 26 13 44 28 17 15 46 38 64 52 54 41 219 212
219 226 0 3 9 15 21 27 11 12 28 36 36 52 9 17 19 32 22 35 15 13 106 194 128
255 6 17 14 39 19 50 4 11 8 25 10 30 30 114 38 152 49 220 8 49 12 140 10
235 -3 155 -6 193 -26 279 -6 25 -12 54 -14 64 -5 21 -24 83 -36 112 -29 76
-48 118 -78 175 -18 36 -38 75 -45 87 -6 13 -14 23 -18 23 -5 0 -8 5 -8 10 0
10 -33 61 -55 86 -5 6 -26 30 -45 54 -59 74 -180 190 -240 230 -12 8 -28 20
-34 26 -18 16 -156 97 -211 123 -142 66 -294 112 -425 128 -25 2 -54 6 -65 8
-11 1 -44 3 -73 4 l-54 1 8 63 c13 117 19 361 10 442 -2 17 -6 59 -10 95 -14
125 -38 252 -68 355 -11 39 -22 79 -25 90 -2 11 -7 27 -10 35 -3 8 -7 20 -8
25 -13 54 -125 305 -181 404 -219 389 -586 750 -949 934 -22 11 -47 26 -55 32
-14 11 -199 93 -250 110 -3 1 -12 4 -20 8 -95 38 -313 95 -430 112 -14 2 -41
6 -60 9 -103 15 -171 19 -325 19 -160 0 -288 -6 -345 -18 -14 -3 -45 -8 -70
-11 -25 -3 -48 -8 -51 -10 -4 -2 -24 -7 -45 -10 -48 -8 -69 -12 -69 -14 0 -1
-11 -3 -24 -6 -41 -7 -195 -56 -207 -66 -15 -11 -27 5 -59 82 -34 83 -105 221
-169 330 -98 168 -291 438 -363 507 -13 12 -23 25 -23 29 0 9 -286 292 -338
334 -24 19 -54 43 -65 54 -12 10 -56 44 -97 75 -41 31 -76 59 -78 64 -2 4 -10
7 -17 7 -7 0 -15 4 -17 8 -3 9 -185 132 -195 132 -3 0 -17 8 -31 19 -50 34
-350 191 -367 191 -2 0 -28 11 -57 25 -86 39 -341 132 -418 151 -8 2 -33 8
-55 14 -22 6 -58 16 -80 21 -22 5 -49 11 -60 14 -35 8 -69 16 -95 21 -14 2
-36 7 -50 9 -26 6 -37 8 -135 24 -54 9 -119 17 -230 28 -48 5 -542 12 -547 8z
m347 -2795 c-4 -7 2 -7 18 -1 14 6 28 7 31 4 5 -5 97 -7 111 -3 7 3 54 2 58 0
1 -1 67 -3 147 -5 166 -4 295 -11 360 -20 25 -3 72 -8 105 -10 55 -3 101 -8
193 -21 18 -2 52 -6 75 -9 23 -3 53 -7 67 -10 14 -3 41 -8 60 -11 39 -6 50 -8
130 -23 30 -6 66 -13 80 -16 37 -7 123 -26 138 -31 7 -2 14 -4 17 -5 2 0 37
-10 77 -21 40 -10 89 -23 108 -28 96 -25 353 -120 475 -176 33 -15 62 -28 65
-29 7 -1 116 -58 188 -97 31 -17 88 -50 125 -74 37 -24 72 -44 77 -44 6 0 10
-4 10 -8 0 -4 14 -16 32 -26 17 -11 41 -27 52 -37 12 -9 57 -46 101 -81 104
-82 272 -250 358 -358 72 -90 175 -239 175 -254 0 -5 4 -12 9 -15 8 -6 22 -30
60 -101 10 -19 23 -38 28 -42 6 -4 7 -8 2 -8 -4 0 4 -21 17 -47 77 -150 173
-450 192 -598 2 -16 7 -48 10 -70 15 -81 27 -335 16 -335 -4 0 -38 29 -76 65
-64 60 -162 147 -210 188 -12 9 -32 27 -46 40 -22 21 -102 86 -154 127 -10 8
-33 27 -50 41 -17 14 -80 63 -141 108 -60 45 -123 92 -139 104 -99 76 -475
317 -494 317 -7 0 -12 4 -12 10 0 5 -19 18 -42 29 -47 21 -140 73 -148 81 -13
14 -482 240 -497 240 -5 0 -16 5 -109 46 -112 50 -512 183 -597 200 -10 2 -27
6 -37 9 -10 3 -27 8 -37 10 -10 3 -55 14 -100 25 -45 10 -96 22 -115 25 -18 3
-41 8 -51 11 -20 6 -47 11 -107 19 -19 2 -46 7 -60 10 -43 8 -92 16 -139 21
-25 2 -59 6 -76 8 -128 15 -354 23 -470 16 l-40 -3 40 -7 c79 -14 201 -42 275
-62 41 -11 80 -21 85 -22 41 -11 72 -20 80 -25 6 -3 19 -7 30 -8 20 -3 133
-39 170 -54 11 -4 40 -15 65 -23 73 -24 163 -57 195 -71 17 -7 82 -34 145 -60
193 -80 554 -253 665 -318 27 -16 77 -44 110 -62 33 -17 90 -51 128 -73 37
-23 72 -42 77 -42 6 0 10 -4 10 -10 0 -5 4 -10 10 -10 8 0 45 -22 150 -90 164
-105 501 -341 536 -374 6 -6 22 -18 34 -26 18 -12 116 -88 210 -163 53 -42
188 -155 206 -172 11 -11 45 -40 74 -65 139 -118 374 -347 442 -430 20 -25 46
-56 58 -70 12 -14 29 -37 38 -52 9 -16 20 -28 24 -28 4 0 8 -5 8 -10 0 -9 35
-65 50 -80 6 -6 29 -46 47 -82 8 -15 19 -30 24 -33 5 -4 7 -10 4 -15 -3 -5 -1
-11 5 -15 17 -11 11 -33 -12 -41 -12 -3 -37 -13 -57 -22 -20 -9 -40 -17 -46
-18 -5 -1 -45 -16 -88 -33 -43 -17 -80 -31 -82 -31 -3 0 -14 19 -26 42 -25 48
-60 101 -71 106 -5 2 -8 8 -8 14 0 5 -6 15 -12 23 -22 23 -48 55 -48 60 0 2
-10 15 -22 27 -13 13 -42 45 -65 71 -22 26 -47 47 -54 47 -6 0 -44 -15 -83
-34 -109 -52 -186 -86 -194 -86 -4 0 -20 -7 -36 -15 -27 -14 -272 -94 -341
-111 -16 -4 -34 -8 -40 -10 -46 -11 -232 -43 -295 -51 -82 -10 -449 -10 -515
0 -27 4 -70 10 -95 12 -25 3 -85 14 -135 25 -49 11 -103 23 -118 26 -16 3 -46
12 -68 19 -21 8 -39 12 -39 8 0 -3 -6 -1 -12 4 -11 8 -49 22 -78 27 -43 9
-425 178 -440 195 -3 3 -30 19 -60 35 -115 61 -419 266 -428 288 -2 5 -10 8
-17 8 -7 0 -15 4 -17 9 -1 5 -28 29 -59 53 -188 145 -493 445 -696 684 -85
100 -119 141 -143 173 -14 18 -30 38 -35 44 -9 10 -31 39 -102 132 -5 6 -23
29 -41 51 -17 23 -32 45 -32 49 0 3 -6 12 -12 20 -34 35 -88 112 -88 124 0 5
-4 11 -9 13 -13 4 -268 397 -317 488 -10 19 -21 37 -24 40 -6 5 -124 212 -180
315 -72 131 -231 457 -226 462 2 2 19 6 37 8 33 4 95 14 133 21 11 2 54 8 95
14 42 6 87 12 101 15 56 9 108 16 155 21 28 2 66 7 85 10 41 7 61 9 155 18 39
4 81 9 95 11 14 3 54 7 90 10 36 3 90 7 120 10 227 18 350 25 523 29 82 2 151
7 154 10 10 10 15 7 8 -4z"/>
</g>
</svg>
